<?xml version="1.0" encoding="UTF-8"?>
<svg xmlns="http://www.w3.org/2000/svg" xmlns:xlink="http://www.w3.org/1999/xlink" viewBox="0 0 64 64" width="50" height="50">
<g id="surface124301597">
<path style=" stroke:none;fill-rule:nonzero;fill:rgb(40.784314%,97.254902%,94.117647%);fill-opacity:1;" d="M 32.230469 5 C 23.847656 4.898438 16.5 10.59375 13.890625 18.558594 C 11.128906 26.984375 15.386719 33.640625 18.625 38.699219 C 20.015625 40.875 21.261719 42.820312 21.765625 44.523438 C 22.019531 45.390625 22.785156 46 23.691406 46 L 25 46 C 25 43.097656 23.214844 40.3125 21.152344 37.082031 C 18.734375 33.308594 16 29.03125 16 24 C 16 15.25 23.058594 8.117188 31.785156 8 C 38.660156 7.910156 44.597656 12.414062 47.03125 18.847656 C 49.8125 26.203125 46.046875 32.082031 42.851562 37.082031 C 40.785156 40.3125 39 43.097656 39 46 L 40.3125 46 C 41.214844 46 41.980469 45.390625 42.238281 44.523438 C 42.742188 42.820312 43.984375 40.875 45.378906 38.703125 C 47.882812 34.785156 51 29.910156 51 24 C 51 13.601562 42.601562 5.125 32.230469 5 Z M 8.652344 6.550781 L 6.808594 8.917969 L 11.34375 12.453125 L 13.1875 10.085938 Z M 55.347656 6.550781 L 50.8125 10.085938 L 52.65625 12.453125 L 57.191406 8.917969 Z M 2 23 L 2 26 L 7 26 L 7 23 Z M 57 23 L 57 26 L 62 26 L 62 23 Z M 26.804688 24.753906 L 26.449219 24.957031 C 25.207031 25.664062 24.679688 27.164062 25.1875 28.5 C 26.3125 31.484375 28 37.390625 28 46 L 31 46 C 31 32.261719 26.972656 25.058594 26.804688 24.753906 Z M 37.195312 24.753906 C 37.027344 25.054688 33 32.261719 33 46 L 36 46 C 36 37.386719 37.6875 31.484375 38.8125 28.5 C 39.316406 27.167969 38.792969 25.667969 37.554688 24.960938 Z M 52.652344 35.550781 L 50.808594 37.917969 L 55.34375 41.453125 L 57.1875 39.085938 Z M 11.34375 35.550781 L 6.808594 39.085938 L 8.652344 41.449219 L 13.1875 37.917969 Z M 23 49 L 23.609375 53.261719 C 23.84375 54.910156 25.078125 56.238281 26.703125 56.597656 L 28.113281 56.914062 C 28.53125 58.679688 30.105469 60 32 60 C 33.894531 60 35.46875 58.679688 35.886719 56.914062 L 37.296875 56.597656 C 38.925781 56.238281 40.15625 54.910156 40.390625 53.261719 L 41 49 Z M 23 49 "/>
</g>
</svg>
